<svg width="327" height="583" viewBox="0 0 327 583" fill="none" xmlns="http://www.w3.org/2000/svg">
<path d="M180.079 525.738C180.079 533.113 178.251 539.754 175.334 544.526C172.41 549.312 168.47 552.112 164.253 552.112C160.036 552.112 156.097 549.312 153.172 544.526C150.256 539.754 148.427 533.113 148.427 525.738C148.427 518.363 150.256 511.722 153.172 506.949C156.097 502.163 160.036 499.363 164.253 499.363C168.47 499.363 172.41 502.163 175.334 506.949C178.251 511.722 180.079 518.363 180.079 525.738Z" stroke="#D2D4DA" stroke-width="1.5"/>
<path d="M190.628 514.436C190.628 527.014 187.534 538.365 182.571 546.546C177.6 554.742 170.835 559.647 163.5 559.647C156.165 559.647 149.4 554.742 144.429 546.546C139.466 538.365 136.372 527.014 136.372 514.436C136.372 501.858 139.466 490.507 144.429 482.326C149.4 474.13 156.165 469.225 163.5 469.225C170.835 469.225 177.6 474.13 182.571 482.326C187.534 490.507 190.628 501.858 190.628 514.436Z" stroke="#D2D4DA" stroke-width="1.5"/>
<path d="M326.25 313.263C326.25 387.635 307.976 454.93 278.471 503.607C248.957 552.298 208.286 582.25 163.5 582.25C118.714 582.25 78.0432 552.298 48.5293 503.607C19.0238 454.93 0.74994 387.635 0.749953 313.263C0.749966 238.891 19.0239 171.596 48.5294 122.918C78.0433 74.2274 118.714 44.2754 163.5 44.2754C208.286 44.2754 248.957 74.2274 278.471 122.918C307.976 171.596 326.25 238.891 326.25 313.263Z" stroke="#D2D4DA" stroke-width="1.5"/>
<path d="M222.273 469.982C222.273 496.915 215.637 521.263 204.948 538.853C194.251 556.456 179.574 567.181 163.5 567.181C147.425 567.181 132.749 556.456 122.052 538.853C111.363 521.263 104.727 496.915 104.727 469.982C104.727 443.048 111.363 418.7 122.052 401.11C132.749 383.507 147.425 372.782 163.5 372.782C179.574 372.782 194.251 383.507 204.948 401.11C215.637 418.7 222.273 443.048 222.273 469.982Z" stroke="#D2D4DA" stroke-width="1.5"/>
<path d="M267.48 403.678C267.48 451.002 255.869 493.81 237.134 524.762C218.392 555.728 192.602 574.716 164.253 574.716C135.905 574.716 110.115 555.728 91.3721 524.762C72.638 493.81 61.0263 451.002 61.0263 403.678C61.0263 356.353 72.638 313.546 91.3721 282.594C110.115 251.628 135.905 232.64 164.253 232.64C192.602 232.64 218.392 251.628 237.135 282.594C255.869 313.546 267.48 356.353 267.48 403.678Z" stroke="#D2D4DA" stroke-width="1.5"/>
<path d="M152.75 38C152.75 33.1444 153.954 28.7846 155.862 25.6632C157.777 22.5289 160.323 20.75 163 20.75C165.677 20.75 168.223 22.5289 170.138 25.6632C172.046 28.7846 173.25 33.1444 173.25 38C173.25 42.8556 172.046 47.2154 170.138 50.3368C168.223 53.4711 165.677 55.25 163 55.25C160.323 55.25 157.777 53.4711 155.862 50.3368C153.954 47.2154 152.75 42.8556 152.75 38Z" stroke="#1D1F22" stroke-width="1.5"/>
<path d="M145.75 45.5C145.75 37.1917 147.794 29.706 151.06 24.3222C154.334 18.9247 158.754 15.75 163.5 15.75C168.246 15.75 172.666 18.9247 175.94 24.3222C179.206 29.706 181.25 37.1917 181.25 45.5C181.25 53.8083 179.206 61.294 175.94 66.6778C172.666 72.0753 168.246 75.25 163.5 75.25C158.754 75.25 154.334 72.0753 151.06 66.6778C147.794 61.294 145.75 53.8083 145.75 45.5Z" stroke="#1D1F22" stroke-width="1.5"/>
<path d="M55.75 179C55.75 129.684 67.8679 85.0737 87.4203 52.8166C106.981 20.5458 133.902 0.749988 163.5 0.749991C193.098 0.749993 220.019 20.5458 239.58 52.8166C259.132 85.0737 271.25 129.684 271.25 179C271.25 228.316 259.132 272.926 239.58 305.183C220.019 337.454 193.098 357.25 163.5 357.25C133.902 357.25 106.981 337.454 87.4203 305.183C67.8678 272.926 55.75 228.316 55.75 179Z" stroke="#1D1F22" stroke-width="1.5"/>
<path d="M124.75 75C124.75 57.165 129.145 41.0545 136.21 29.4275C143.284 17.7871 152.955 10.75 163.5 10.75C174.045 10.75 183.716 17.7871 190.79 29.4276C197.855 41.0545 202.25 57.165 202.25 75C202.25 92.835 197.855 108.945 190.79 120.572C183.716 132.213 174.045 139.25 163.5 139.25C152.955 139.25 143.284 132.213 136.21 120.572C129.145 108.945 124.75 92.835 124.75 75Z" stroke="#1D1F22" stroke-width="1.5"/>
<path d="M94.75 119C94.75 87.6335 102.447 59.2726 114.851 38.7782C127.264 18.2698 144.31 5.74999 163 5.74999C181.69 5.75 198.736 18.2698 211.149 38.7782C223.553 59.2726 231.25 87.6335 231.25 119C231.25 150.367 223.553 178.727 211.149 199.222C198.736 219.73 181.69 232.25 163 232.25C144.31 232.25 127.264 219.73 114.851 199.222C102.447 178.727 94.75 150.367 94.75 119Z" stroke="#1D1F22" stroke-width="1.5"/>
</svg>
