<svg width="577" height="829" viewBox="0 0 577 829" fill="none" xmlns="http://www.w3.org/2000/svg">
<path d="M86.75 325.856L234.913 467L86.75 608.144L86.75 325.856Z" stroke="#D2D4DA" stroke-width="1.5"/>
<path d="M111 155.243L439.91 467L111 778.757L111 155.243Z" stroke="#D2D4DA" stroke-width="1.5"/>
<path d="M277.5 325.121L427.911 468L277.5 610.879L277.5 325.121Z" stroke="#D2D4DA" stroke-width="1.5"/>
<path d="M365.5 418.586L416.912 467.5L365.5 516.414L365.5 418.586Z" stroke="#D2D4DA" stroke-width="1.5"/>
<path d="M490.25 503.144L342.087 362L490.25 220.856L490.25 503.144Z" stroke="#1D1F22" stroke-width="1.5"/>
<path d="M466 673.757L137.09 362L466 50.2431L466 673.757Z" stroke="#1D1F22" stroke-width="1.5"/>
<path d="M299.5 503.879L149.089 361L299.5 218.121L299.5 503.879Z" stroke="#1D1F22" stroke-width="1.5"/>
<path d="M211.5 410.414L160.088 361.5L211.5 312.586L211.5 410.414Z" stroke="#1D1F22" stroke-width="1.5"/>
</svg>
