<svg width="144" height="24" viewBox="0 0 144 24" fill="none" xmlns="http://www.w3.org/2000/svg">
<path fill-rule="evenodd" clip-rule="evenodd" d="M0 0.162598V23.8351H1.35271V0.513302L0 0.162598ZM2.70494 0.863878V23.8351H4.05765V1.21458L2.70494 0.863878ZM5.41052 1.56533V23.8351H6.76324V1.91603L5.41052 1.56533ZM8.11546 2.26661V23.8351H9.46817V2.61731L8.11546 2.26661ZM10.8217 2.96822V23.8351H12.1744V3.31892L10.8217 2.96822ZM13.5273 3.66966V23.8351H14.88V4.02037L13.5273 3.66966ZM16.2322 4.37094V23.8351H17.5849V4.72165L16.2322 4.37094ZM18.9378 4.72181V23.8351H20.2905V4.37111L18.9378 4.72181ZM21.6433 4.02036V23.8351H22.9961V3.66966L21.6433 4.02036ZM24.3483 3.31908V23.8351H25.701V2.96838L24.3483 3.31908ZM27.0545 2.61747V23.8351H28.4072V2.26677L27.0545 2.61747ZM29.7594 1.91619V23.8351H31.1122V1.56549L29.7594 1.91619ZM32.4657 1.21458V23.8351H33.8184V0.863874L32.4657 1.21458ZM35.1706 0.513299V23.8351H36.5233L36.5233 0.162598L35.1706 0.513299Z" fill="black"/>
<path d="M40.3884 23.7288H44.185V7.42373L50.9986 23.7288H54.0833L60.863 7.42373V23.7288H64.6596V0H60.0833L52.524 18.0339L44.9647 0H40.3884V23.7288Z" fill="black"/>
<path d="M74.6432 6.37288C71.0161 6.37288 68.1008 8.57627 67.5584 11.9322L70.8805 12.5424C71.1178 10.5085 72.5754 9.28814 74.6432 9.28814C76.8805 9.28814 78.3381 10.5763 78.3381 12.678V12.9153L75.1178 13.2542C69.8635 13.7966 67.2534 15.5932 67.2534 18.9492C67.2534 21.8644 69.5923 24 72.9822 24C75.2534 24 77.3551 22.8475 78.3381 21.1186V23.7288H81.9652V13.0847C81.9652 8.81356 78.9822 6.37288 74.6432 6.37288ZM73.7279 21.1525C71.9991 21.1525 70.8805 20.2034 70.8805 18.8475C70.8805 17.3559 72.3042 16.339 75.0839 16.0339L78.3381 15.661V16.3729C78.3042 19.1525 76.6093 21.1525 73.7279 21.1525Z" fill="black"/>
<path d="M85.2918 23.7288H88.9867V16.2373C88.9867 12.1356 90.7155 9.69491 93.5968 9.69491C95.7663 9.69491 97.0884 11.1864 97.0884 13.322V23.7288H100.783V12.4746C100.783 8.77966 98.2409 6.37288 94.6138 6.37288C92.1053 6.37288 90.1392 7.66102 88.9867 9.49153V6.64407H85.2918V23.7288Z" fill="black"/>
<path d="M114.163 23.5932L113.926 20.3051C113.282 20.6102 112.502 20.7119 111.858 20.7119C110.468 20.7119 109.519 19.8305 109.519 18.1356V9.79661H113.926V6.64407H109.519V1.55932H105.824V6.64407H102.841V9.79661H105.824V18.339C105.824 22.2373 108.231 24 111.451 24C112.4 24 113.349 23.8644 114.163 23.5932Z" fill="black"/>
<path d="M127.593 10.2373L127.796 6.67797C127.287 6.47458 126.542 6.37288 125.898 6.37288C123.83 6.37288 121.593 7.86441 120.677 9.8983V6.64407H116.982V23.7288H120.677V17.3559C120.677 12.0678 122.881 9.83051 125.389 9.83051C126.169 9.83051 126.982 9.9661 127.593 10.2373Z" fill="black"/>
<path d="M136.344 6.37288C132.717 6.37288 129.802 8.57627 129.26 11.9322L132.582 12.5424C132.819 10.5085 134.277 9.28814 136.344 9.28814C138.582 9.28814 140.039 10.5763 140.039 12.678V12.9153L136.819 13.2542C131.565 13.7966 128.955 15.5932 128.955 18.9492C128.955 21.8644 131.294 24 134.683 24C136.955 24 139.056 22.8475 140.039 21.1186V23.7288H143.666V13.0847C143.666 8.81356 140.683 6.37288 136.344 6.37288ZM135.429 21.1525C133.7 21.1525 132.582 20.2034 132.582 18.8475C132.582 17.3559 134.005 16.339 136.785 16.0339L140.039 15.661V16.3729C140.005 19.1525 138.31 21.1525 135.429 21.1525Z" fill="black"/>
</svg>
